HIERARCHY
ROOT Hips
{
  OFFSET 352.181 89.6817 215.948
  CHANNELS 6 Xposition Yposition Zposition Zrotation Xrotation Yrotation
  JOINT RightUpLeg
  {
    OFFSET -9.28908 -1.54242 -0.003762
    CHANNELS 3 Zrotation Xrotation Yrotation
    JOINT RightLeg
    {
      OFFSET 0.175992 -41.9066 0.16442
      CHANNELS 3 Zrotation Xrotation Yrotation
      JOINT RightFoot
      {
        OFFSET -0.850518 -41.676 1.19357
        CHANNELS 3 Zrotation Xrotation Yrotation
        End Site
        {
          OFFSET 0 -7.69 17.5
        }
      }
    }
  }
  JOINT LeftUpLeg
  {
    OFFSET 9.35911 -1.62184 0.0934226
    CHANNELS 3 Zrotation Xrotation Yrotation
    JOINT LeftLeg
    {
      OFFSET 0.11037 -41.8771 -4.76722e-05
      CHANNELS 3 Zrotation Xrotation Yrotation
      JOINT LeftFoot
      {
        OFFSET 0.784832 -42.2153 -2.4698
        CHANNELS 3 Zrotation Xrotation Yrotation
        End Site
        {
          OFFSET 0 -7.69 17.5
        }
      }
    }
  }
  JOINT Spine
  {
    OFFSET -0.0264112 14.3118 0.141242
    CHANNELS 3 Zrotation Xrotation Yrotation
    JOINT Spine1
    {
      OFFSET -0.0608006 9.71827 0.0702426
      CHANNELS 3 Zrotation Xrotation Yrotation
      JOINT Spine2
      {
        OFFSET 0.040197 10.1251 -0.0199022
        CHANNELS 3 Zrotation Xrotation Yrotation
        JOINT Spine3
        {
          OFFSET -0.018884 9.71791 0.0127475
          CHANNELS 3 Zrotation Xrotation Yrotation
          JOINT Neck
          {
            OFFSET -0.169577 10.3664 -0.0885607
            CHANNELS 3 Zrotation Xrotation Yrotation
            JOINT Head
            {
              OFFSET -0.26372 9.48406 0.127016
              CHANNELS 3 Zrotation Xrotation Yrotation
              End Site
              {
                OFFSET 0 15.95 0
              }
            }
          }
          JOINT RightShoulder
          {
            OFFSET -3.21308 6.8767 -0.0450237
            CHANNELS 3 Zrotation Xrotation Yrotation
            JOINT RightArm
            {
              OFFSET -12.7762 -0.0188046 -0.0629949
              CHANNELS 3 Zrotation Xrotation Yrotation
              JOINT RightForeArm
              {
                OFFSET -26.5383 -0.000218244 -0.103623
                CHANNELS 3 Zrotation Xrotation Yrotation
                JOINT RightHand
                {
                  OFFSET -25.8669 -0.047899 -0.0603739
                  CHANNELS 3 Zrotation Xrotation Yrotation
                  JOINT RightHandThumb1
                  {
                    OFFSET -2.48905 0.190105 3.12053
                    CHANNELS 3 Zrotation Xrotation Yrotation
                    JOINT RightHandThumb2
                    {
                      OFFSET -3.68274 0 0
                      CHANNELS 3 Zrotation Xrotation Yrotation
                      JOINT RightHandThumb3
                      {
                        OFFSET -2.55832 0 0
                        CHANNELS 3 Zrotation Xrotation Yrotation
                        End Site
                        {
                          OFFSET -2.194 0 0
                        }
                      }
                    }
                  }
                  JOINT RightInHandIndex
                  {
                    OFFSET -3.22368 0.508421 1.97842
                    CHANNELS 3 Zrotation Xrotation Yrotation
                    JOINT RightHandIndex1
                    {
                      OFFSET -5.21684 -0.091368 0.999158
                      CHANNELS 3 Zrotation Xrotation Yrotation
                      JOINT RightHandIndex2
                      {
                        OFFSET -3.61937 0 0
                        CHANNELS 3 Zrotation Xrotation Yrotation
                        JOINT RightHandIndex3
                        {
                          OFFSET -2.0521 0 0
                          CHANNELS 3 Zrotation Xrotation Yrotation
                          End Site
                          {
                            OFFSET -1.805 0 0
                          }
                        }
                      }
                    }
                  }
                  JOINT RightInHandMiddle
                  {
                    OFFSET -3.38211 0.517263 0.756737
                    CHANNELS 3 Zrotation Xrotation Yrotation
                    JOINT RightHandMiddle1
                    {
                      OFFSET -5.17411 -0.084 0.313895
                      CHANNELS 3 Zrotation Xrotation Yrotation
                      JOINT RightHandMiddle2
                      {
                        OFFSET -3.94947 0 0
                        CHANNELS 3 Zrotation Xrotation Yrotation
                        JOINT RightHandMiddle3
                        {
                          OFFSET -2.47579 0 0
                          CHANNELS 3 Zrotation Xrotation Yrotation
                          End Site
                          {
                            OFFSET -1.975 0 0
                          }
                        }
                      }
                    }
                  }
                  JOINT RightInHandRing
                  {
                    OFFSET -3.36516 0.537895 -0.128947
                    CHANNELS 3 Zrotation Xrotation Yrotation
                    JOINT RightHandRing1
                    {
                      OFFSET -4.63474 -0.022105 -0.478947
                      CHANNELS 3 Zrotation Xrotation Yrotation
                      JOINT RightHandRing2
                      {
                        OFFSET -3.44238 0 0
                        CHANNELS 3 Zrotation Xrotation Yrotation
                        JOINT RightHandRing3
                        {
                          OFFSET -2.3881 0 0
                          CHANNELS 3 Zrotation Xrotation Yrotation
                          End Site
                          {
                            OFFSET -1.857 0 0
                          }
                        }
                      }
                    }
                  }
                  JOINT RightInHandPinky
                  {
                    OFFSET -3.16105 0.469368 -1.20179
                    CHANNELS 3 Zrotation Xrotation Yrotation
                    JOINT RightHandPinky1
                    {
                      OFFSET -4.14105 -0.022105 -1.09053
                      CHANNELS 3 Zrotation Xrotation Yrotation
                      JOINT RightHandPinky2
                      {
                        OFFSET -2.75653 0 0
                        CHANNELS 3 Zrotation Xrotation Yrotation
                        JOINT RightHandPinky3
                        {
                          OFFSET -1.74189 0 0
                          CHANNELS 3 Zrotation Xrotation Yrotation
                          End Site
                          {
                            OFFSET -1.645 0 0
                          }
                        }
                      }
                    }
                  }
                }
              }
            }
          }
          JOINT LeftShoulder
          {
            OFFSET 3.21013 6.92813 0.031381
            CHANNELS 3 Zrotation Xrotation Yrotation
            JOINT LeftArm
            {
              OFFSET 12.8361 0.00272676 -0.00293476
              CHANNELS 3 Zrotation Xrotation Yrotation
              JOINT LeftForeArm
              {
                OFFSET 26.5005 -0.02636 0.00399578
                CHANNELS 3 Zrotation Xrotation Yrotation
                JOINT LeftHand
                {
                  OFFSET 25.9821 -0.0367196 0.00246136
                  CHANNELS 3 Zrotation Xrotation Yrotation
                  JOINT LeftHandThumb1
                  {
                    OFFSET 2.48905 0.190105 3.12053
                    CHANNELS 3 Zrotation Xrotation Yrotation
                    JOINT LeftHandThumb2
                    {
                      OFFSET 3.68274 0 0
                      CHANNELS 3 Zrotation Xrotation Yrotation
                      JOINT LeftHandThumb3
                      {
                        OFFSET 2.55832 0 0
                        CHANNELS 3 Zrotation Xrotation Yrotation
                        End Site
                        {
                          OFFSET 2.194 0 0
                        }
                      }
                    }
                  }
                  JOINT LeftInHandIndex
                  {
                    OFFSET 3.22368 0.508421 1.97842
                    CHANNELS 3 Zrotation Xrotation Yrotation
                    JOINT LeftHandIndex1
                    {
                      OFFSET 5.21684 -0.091368 0.999158
                      CHANNELS 3 Zrotation Xrotation Yrotation
                      JOINT LeftHandIndex2
                      {
                        OFFSET 3.61937 0 0
                        CHANNELS 3 Zrotation Xrotation Yrotation
                        JOINT LeftHandIndex3
                        {
                          OFFSET 2.0521 0 0
                          CHANNELS 3 Zrotation Xrotation Yrotation
                          End Site
                          {
                            OFFSET 1.805 0 0
                          }
                        }
                      }
                    }
                  }
                  JOINT LeftInHandMiddle
                  {
                    OFFSET 3.38211 0.517263 0.756737
                    CHANNELS 3 Zrotation Xrotation Yrotation
                    JOINT LeftHandMiddle1
                    {
                      OFFSET 5.17411 -0.084 0.313895
                      CHANNELS 3 Zrotation Xrotation Yrotation
                      JOINT LeftHandMiddle2
                      {
                        OFFSET 3.94947 0 0
                        CHANNELS 3 Zrotation Xrotation Yrotation
                        JOINT LeftHandMiddle3
                        {
                          OFFSET 2.47579 0 0
                          CHANNELS 3 Zrotation Xrotation Yrotation
                          End Site
                          {
                            OFFSET 1.975 0 0
                          }
                        }
                      }
                    }
                  }
                  JOINT LeftInHandRing
                  {
                    OFFSET 3.36516 0.537895 -0.128947
                    CHANNELS 3 Zrotation Xrotation Yrotation
                    JOINT LeftHandRing1
                    {
                      OFFSET 4.63474 -0.022105 -0.478947
                      CHANNELS 3 Zrotation Xrotation Yrotation
                      JOINT LeftHandRing2
                      {
                        OFFSET 3.44238 0 0
                        CHANNELS 3 Zrotation Xrotation Yrotation
                        JOINT LeftHandRing3
                        {
                          OFFSET 2.3881 0 0
                          CHANNELS 3 Zrotation Xrotation Yrotation
                          End Site
                          {
                            OFFSET 1.857 0 0
                          }
                        }
                      }
                    }
                  }
                  JOINT LeftInHandPinky
                  {
                    OFFSET 3.16105 0.469368 -1.20179
                    CHANNELS 3 Zrotation Xrotation Yrotation
                    JOINT LeftHandPinky1
                    {
                      OFFSET 4.14105 -0.022105 -1.09053
                      CHANNELS 3 Zrotation Xrotation Yrotation
                      JOINT LeftHandPinky2
                      {
                        OFFSET 2.75653 0 0
                        CHANNELS 3 Zrotation Xrotation Yrotation
                        JOINT LeftHandPinky3
                        {
                          OFFSET 1.74189 0 0
                          CHANNELS 3 Zrotation Xrotation Yrotation
                          End Site
                          {
                            OFFSET 1.645 0 0
                          }
                        }
                      }
                    }
                  }
                }
              }
            }
          }
        }
      }
    }
  }
}
MOTION
Frames: 3
Frame Time: 0.00833333
5.990776151137350780e+02 -3.772214323738975472e-01 7.220150385240692303e-02 -6.243134868077071520e-01 -5.542137784040138015e+00 -9.393040003462772347e+00 8.706858044109845096e+00 6.242356936399420242e+00 9.004282432913900180e+00 -9.643409674355130079e-01 -3.288397148751401655e+00 2.735493737258364977e+00 -9.126250844189188749e-01 2.504279220599374245e+00 4.194825690865828349e+00 1.186276553072479478e+00 1.003051213258300400e+01 3.768186086456557948e+00 -6.708083625205653711e+00 -2.301738937130373142e+00 5.723371583363397797e+00 3.207177251754335656e-01 -2.707028919105973763e+00 2.392684275407652716e+00 -3.129402926318962663e+00 -1.938293986919484846e+00 -1.040459788224195714e+00 -6.965008936926417871e-01 -5.961622154467862700e-01 -2.268891651580604574e-01 -1.173723998936891277e+00 -1.022373492004322149e+00 -3.680322035918157098e-01 1.135991565478886856e-01 -6.981896583951677226e-02 1.046067040600945630e-01 3.717375591162299653e-01 -1.219286992948042103e+00 1.420415606747534376e+01 2.924917285970878300e+00 3.251297771052157337e+00 -7.202990772088616822e+00 -6.569704797200899282e-01 1.582273109548726353e+00 -5.546201803440171663e-01 -1.648184971780436214e+01 -1.196583725501407791e+01 -2.581963196073039146e+00 -1.277510428604700721e+01 6.323768558714498056e+00 2.247940499790213931e+00 1.936176065282511072e+00 4.364818402135235864e+00 -6.283549892125065206e+00 0.000000000000000000e+00 0.000000000000000000e+00 0.000000000000000000e+00 -8.727158474877907086e-15 1.760964334776810277e-15 0.000000000000000000e+00 -3.927441608978527168e-15 4.666289382014604866e-16 0.000000000000000000e+00 4.296015796332131177e-15 -8.145719327811713390e-17 -1.529505976862549323e-16 0.000000000000000000e+00 0.000000000000000000e+00 0.000000000000000000e+00 0.000000000000000000e+00 -3.839566999552021607e-15 -7.692591326375930785e-15 0.000000000000000000e+00 -6.702667120642234181e-16 -1.872816852517497432e-15 4.296015796332131177e-15 -8.145719327811713390e-17 -1.529505976862549323e-16 0.000000000000000000e+00 -5.164805404548861140e-15 -4.769578982354499610e-15 0.000000000000000000e+00 -2.504952028969649679e-15 -6.318770352198965412e-15 0.000000000000000000e+00 2.685837261194964503e-15 -2.066097074116964013e-15 4.296015796332131177e-15 -8.145719327811713390e-17 -1.529505976862549323e-16 0.000000000000000000e+00 0.000000000000000000e+00 0.000000000000000000e+00 0.000000000000000000e+00 -6.168477635339888445e-16 -6.167626071596467034e-15 0.000000000000000000e+00 7.338314116752325886e-16 -4.401528708860780516e-15 4.296015796332131177e-15 -8.145719327811713390e-17 -1.529505976862549323e-16 0.000000000000000000e+00 0.000000000000000000e+00 0.000000000000000000e+00 0.000000000000000000e+00 -2.104502013035309387e-15 -8.799474257345558198e-15 0.000000000000000000e+00 2.185787909709631292e-15 -2.312604582419873931e-15 -1.697137950399987716e+00 -1.968392036067928341e+00 -1.012969689367634318e+00 -2.372709582039433940e+00 -4.829624283258997508e+00 -9.910132311058736931e-01 -1.523944471753250696e+01 -1.487323866248893900e+00 -3.359186368871122141e+01 2.232704531271562765e+00 3.073437208395482845e+00 -6.000955968720894873e+00 0.000000000000000000e+00 0.000000000000000000e+00 0.000000000000000000e+00 -2.853155972101675667e-15 1.464436675720819281e-15 0.000000000000000000e+00 -4.149646314701968117e-16 1.499697577466113233e-15 0.000000000000000000e+00 -2.509194600110595947e-15 2.895802468249296167e-15 1.203872132493416647e-16 0.000000000000000000e+00 0.000000000000000000e+00 0.000000000000000000e+00 0.000000000000000000e+00 -2.707517540984580465e-16 -2.799862425524041147e-15 0.000000000000000000e+00 -3.413216189907828771e-16 -1.368066987355210213e-15 -2.509194600110595947e-15 2.895802468249296167e-15 1.203872132493416647e-16 0.000000000000000000e+00 2.611148084026159188e-16 -1.618336870732815647e-15 0.000000000000000000e+00 1.006538233690286489e-15 -3.146745188621119044e-15 0.000000000000000000e+00 -2.030940017163691853e-15 -3.047273231054948938e-15 -2.509194600110595947e-15 2.895802468249296167e-15 1.203872132493416647e-16 0.000000000000000000e+00 0.000000000000000000e+00 0.000000000000000000e+00 0.000000000000000000e+00 5.664418762979409978e-16 -2.638541553502107553e-15 0.000000000000000000e+00 2.500692826402637582e-15 -3.507670657256004080e-15 -2.509194600110595947e-15 2.895802468249296167e-15 1.203872132493416647e-16 0.000000000000000000e+00 0.000000000000000000e+00 0.000000000000000000e+00 0.000000000000000000e+00 2.195331015827323330e-15 -3.234943193755236933e-15 0.000000000000000000e+00 1.886295113256447790e-15 2.832206907396378476e-15
5.991297942747628440e+02 -4.019580376982243020e-01 5.759937825114447296e-02 -6.001144711842970603e-01 -5.588663058368200431e+00 -9.816406963192370938e+00 8.975422343362176036e+00 6.177665539548915064e+00 9.248067559424340445e+00 -1.045156317544903235e+00 -3.321260548387583000e+00 2.826408679672590907e+00 -9.152941127661405885e-01 2.643160920690162285e+00 4.347376650594950931e+00 1.332076179897928814e+00 1.012514842928685965e+01 3.967946891910239415e+00 -6.836438622826670475e+00 -2.176887688632850093e+00 5.863220333098755788e+00 3.859932968902123340e-01 -2.818981760407854864e+00 2.535625424037949660e+00 -3.136963596062983584e+00 -1.927518958383887426e+00 -1.132410350313077574e+00 -6.991627819663480681e-01 -5.916973761335966309e-01 -2.519277716439535242e-01 -1.178113549950208450e+00 -1.016420233955751540e+00 -4.084574501013106818e-01 1.080449441664283750e-01 -7.357917726357407484e-02 1.223653394767637015e-01 3.617537996820476831e-01 -1.227104206125047670e+00 1.440639890790328081e+01 2.831728028659488583e+00 3.240725346151516195e+00 -7.001358819742783623e+00 -5.309785347964960378e-01 1.635908736850079093e+00 -6.361188747535815313e-01 -1.620165448428673827e+01 -1.228373749019042904e+01 -2.790860443097697097e+00 -1.243727451971574283e+01 6.372235655093732021e+00 2.925983529579282205e+00 1.981440603809125456e+00 4.467547652494668675e+00 -6.149935175653680197e+00 0.000000000000000000e+00 0.000000000000000000e+00 0.000000000000000000e+00 -8.784603673342385639e-15 1.394121815361716914e-15 0.000000000000000000e+00 -4.955128816496494315e-15 7.484658608234979809e-17 0.000000000000000000e+00 3.718232947620767836e-15 -3.018594386663997662e-16 -1.051524776859104949e-16 0.000000000000000000e+00 0.000000000000000000e+00 0.000000000000000000e+00 0.000000000000000000e+00 -3.769939566376825719e-15 -8.124580084217395511e-15 0.000000000000000000e+00 -7.078107990478761576e-16 -2.354669499321250816e-15 3.718232947620767836e-15 -3.018594386663997662e-16 -1.051524776859104949e-16 0.000000000000000000e+00 -5.289442728985870911e-15 -5.001847091100923576e-15 0.000000000000000000e+00 -2.513443968104355954e-15 -6.072649684537254033e-15 0.000000000000000000e+00 2.642417806859466296e-15 -2.189460335649192513e-15 3.718232947620767836e-15 -3.018594386663997662e-16 -1.051524776859104949e-16 0.000000000000000000e+00 0.000000000000000000e+00 0.000000000000000000e+00 0.000000000000000000e+00 -5.573026742491605291e-16 -6.428967654181487833e-15 0.000000000000000000e+00 6.439180563182421618e-16 -4.247161614772180005e-15 3.718232947620767836e-15 -3.018594386663997662e-16 -1.051524776859104949e-16 0.000000000000000000e+00 0.000000000000000000e+00 0.000000000000000000e+00 0.000000000000000000e+00 -2.340512913861243499e-15 -8.908268693597929246e-15 0.000000000000000000e+00 2.599073681918691924e-15 -2.365183281185350786e-15 -1.718004264626902700e+00 -1.992910432678502097e+00 -1.125625972833915966e+00 -2.116169625802977183e+00 -4.671102472350769474e+00 -1.332465554338184921e+00 -1.464465126190045119e+01 -1.011632891190563432e+00 -3.301533759029995707e+01 2.168140095227536701e+00 3.038980328062906189e+00 -5.931951935177728785e+00 0.000000000000000000e+00 0.000000000000000000e+00 0.000000000000000000e+00 -3.079082502502691864e-15 1.401653206670513963e-15 0.000000000000000000e+00 -5.561904637345703606e-16 1.502613341864266034e-15 0.000000000000000000e+00 -2.242350232619868005e-15 2.936497744224904621e-15 1.702257189556199859e-16 0.000000000000000000e+00 0.000000000000000000e+00 0.000000000000000000e+00 0.000000000000000000e+00 -3.917918665614069952e-16 -2.734863594561585991e-15 0.000000000000000000e+00 -3.509734050543427442e-16 -1.219689498866069046e-15 -2.242350232619868005e-15 2.936497744224904621e-15 1.702257189556199859e-16 0.000000000000000000e+00 3.411969402051960939e-16 -1.525322717596796987e-15 0.000000000000000000e+00 9.591169009336120093e-16 -3.375197542232592471e-15 0.000000000000000000e+00 -2.249304883569248098e-15 -2.939452761152964354e-15 -2.242350232619868005e-15 2.936497744224904621e-15 1.702257189556199859e-16 0.000000000000000000e+00 0.000000000000000000e+00 0.000000000000000000e+00 0.000000000000000000e+00 4.148406058394026728e-16 -2.871059838961409580e-15 0.000000000000000000e+00 2.511736939901557086e-15 -3.772264278381272711e-15 -2.242350232619868005e-15 2.936497744224904621e-15 1.702257189556199859e-16 0.000000000000000000e+00 0.000000000000000000e+00 0.000000000000000000e+00 0.000000000000000000e+00 1.932838504323756818e-15 -3.100928717206652523e-15 0.000000000000000000e+00 1.403130583324415929e-15 3.097454535419260879e-15
5.991848883186889907e+02 -4.275609894091076391e-01 4.331173238401328507e-02 -5.746405978594294472e-01 -5.629397913491617444e+00 -1.023283302732395761e+01 9.240347937090726660e+00 6.097801974248002743e+00 9.486658292317095231e+00 -1.128649393153241087e+00 -3.345050114784150708e+00 2.915732765401633841e+00 -9.125532854846835074e-01 2.779497800833872212e+00 4.497509869263451421e+00 1.490351482306547126e+00 1.021239805928617805e+01 4.190801084809391952e+00 -6.965537428728403313e+00 -2.045302709182217349e+00 6.000612940502641379e+00 4.524703095839496259e-01 -2.927592360798736415e+00 2.657901811718065055e+00 -3.141632901591834948e+00 -1.912413330614786133e+00 -1.216409628206934990e+00 -7.013919961900139111e-01 -5.852820201483259765e-01 -2.752295520529176032e-01 -1.181737942953691833e+00 -1.008082649561799604e+00 -4.462586504780203800e-01 1.021607974255562129e-01 -7.762605976280641251e-02 1.411968070924505270e-01 3.503535012985315444e-01 -1.240072787961112422e+00 1.461241388003053032e+01 2.731831852619553747e+00 3.226326112003856217e+00 -6.796240124710831942e+00 -4.024108174552425421e-01 1.689906951131279422e+00 -7.211716575026961840e-01 -1.589969729214817029e+01 -1.260823840989929678e+01 -2.982768367013368671e+00 -1.209474272054840682e+01 6.425401638711033314e+00 3.608594148649587829e+00 2.023183234172937439e+00 4.535790078052604812e+00 -6.016064757121755591e+00 0.000000000000000000e+00 0.000000000000000000e+00 0.000000000000000000e+00 -8.670928490176628465e-15 1.049799975870306676e-15 0.000000000000000000e+00 -5.738538152986751927e-15 -3.659865832294789875e-16 0.000000000000000000e+00 3.225137752253799463e-15 -5.148802850476874745e-16 -7.959488126115503437e-17 0.000000000000000000e+00 0.000000000000000000e+00 0.000000000000000000e+00 0.000000000000000000e+00 -3.652147204990545210e-15 -8.471495280102928758e-15 0.000000000000000000e+00 -6.928774356547254603e-16 -2.759478820788783045e-15 3.225137752253799463e-15 -5.148802850476874745e-16 -7.959488126115503437e-17 0.000000000000000000e+00 -5.357177987544791502e-15 -5.226833584368304562e-15 0.000000000000000000e+00 -2.527201800786470851e-15 -5.784107257135076229e-15 0.000000000000000000e+00 2.603941569988833653e-15 -2.227224736298492922e-15 3.225137752253799463e-15 -5.148802850476874745e-16 -7.959488126115503437e-17 0.000000000000000000e+00 0.000000000000000000e+00 0.000000000000000000e+00 0.000000000000000000e+00 -4.926685049072999192e-16 -6.646652678249539295e-15 0.000000000000000000e+00 5.520699338268943425e-16 -4.100003009376815478e-15 3.225137752253799463e-15 -5.148802850476874745e-16 -7.959488126115503437e-17 0.000000000000000000e+00 0.000000000000000000e+00 0.000000000000000000e+00 0.000000000000000000e+00 -2.571084191708277891e-15 -8.997694777535312574e-15 0.000000000000000000e+00 2.904600285556236328e-15 -2.374608872709214935e-15 -1.733433487081166513e+00 -2.020266969438903715e+00 -1.250408618776722713e+00 -1.850881359762601264e+00 -4.508893777060182906e+00 -1.687236701777589332e+00 -1.402755786875943578e+01 -5.246485383533582292e-01 -3.242573118949174926e+01 2.091752451830674708e+00 2.993808604124494455e+00 -5.842464119520941246e+00 0.000000000000000000e+00 0.000000000000000000e+00 0.000000000000000000e+00 -3.296770613367598308e-15 1.331669799567282616e-15 0.000000000000000000e+00 -8.173252170533370788e-16 1.472799233732447184e-15 0.000000000000000000e+00 -1.975119767943578931e-15 2.970922391867516696e-15 2.088183984219939050e-16 0.000000000000000000e+00 0.000000000000000000e+00 0.000000000000000000e+00 0.000000000000000000e+00 -5.422236116299162045e-16 -2.588459221335445667e-15 0.000000000000000000e+00 -3.484310835205001736e-16 -1.073196591237640904e-15 -1.975119767943578931e-15 2.970922391867516696e-15 2.088183984219939050e-16 0.000000000000000000e+00 3.762314394973760800e-16 -1.383875156564777985e-15 0.000000000000000000e+00 8.979152200962164549e-16 -3.603394284549192403e-15 0.000000000000000000e+00 -2.457739890229023278e-15 -2.760894420157379895e-15 -1.975119767943578931e-15 2.970922391867516696e-15 2.088183984219939050e-16 0.000000000000000000e+00 0.000000000000000000e+00 0.000000000000000000e+00 0.000000000000000000e+00 2.606949648663521176e-16 -3.063458152947980523e-15 0.000000000000000000e+00 2.498411128807350482e-15 -3.967725253851070192e-15 -1.975119767943578931e-15 2.970922391867516696e-15 2.088183984219939050e-16 0.000000000000000000e+00 0.000000000000000000e+00 0.000000000000000000e+00 0.000000000000000000e+00 1.659307049091906394e-15 -2.987706402559942823e-15 0.000000000000000000e+00 9.130989465128164842e-16 3.328645811261092101e-15
